<?xml version="1.0" standalone="no"?>
<!DOCTYPE svg PUBLIC "-//W3C//DTD SVG 20010904//EN"
 "http://www.w3.org/TR/2001/REC-SVG-20010904/DTD/svg10.dtd">
<svg version="1.0" xmlns="http://www.w3.org/2000/svg"
 width="1024.000000pt" height="1024.000000pt" viewBox="0 0 1024.000000 1024.000000"
 preserveAspectRatio="xMidYMid meet">
<metadata>
Created by potrace 1.14, written by Peter Selinger 2001-2017
</metadata>
<g transform="translate(0.000000,1024.000000) scale(0.100000,-0.100000)"
fill="#000000" stroke="none">
<path d="M4680 10083 c-505 -34 -920 -121 -1365 -283 -680 -249 -1268 -620
-1784 -1125 -870 -852 -1374 -1912 -1508 -3175 -24 -231 -24 -772 0 -988 104
-917 408 -1682 960 -2416 380 -505 907 -969 1461 -1286 591 -338 1277 -562
1951 -635 443 -49 1016 -31 1461 45 62 11 162 27 221 35 941 139 1803 539
2518 1168 876 771 1457 1859 1599 2997 56 448 60 922 10 1310 -142 1117 -621
2106 -1394 2880 -307 308 -618 551 -975 762 -608 359 -1217 557 -1962 638 -98
11 -245 28 -328 39 -266 35 -639 50 -865 34z m860 -177 c243 -29 679 -110 666
-123 -2 -3 -40 2 -83 11 -281 57 -577 80 -952 73 -386 -7 -654 -38 -1010 -118
-544 -121 -1099 -347 -1531 -624 -114 -73 -80 -42 48 43 415 279 887 497 1366
633 144 40 429 102 551 118 114 15 787 6 945 -13z m-1495 -63 c-63 -16 -328
-101 -439 -143 -542 -200 -1056 -503 -1507 -891 -142 -122 -411 -390 -529
-529 -238 -278 -494 -659 -640 -950 -23 -47 -74 -137 -113 -200 -240 -392
-377 -776 -417 -1165 -25 -246 -19 -1101 11 -1374 27 -254 112 -631 214 -950
29 -91 63 -201 75 -245 36 -129 105 -289 183 -424 183 -315 225 -386 312 -517
341 -517 753 -943 1267 -1312 825 -593 1875 -933 2876 -933 107 0 193 -2 191
-5 -15 -14 -351 -35 -565 -35 -274 0 -422 10 -674 46 -893 127 -1722 495
-2425 1078 -152 127 -437 407 -566 556 -299 348 -507 663 -709 1075 -171 347
-287 663 -375 1019 -280 1132 -174 2230 314 3241 603 1247 1725 2179 3091
2565 138 39 397 99 425 98 l20 0 -20 -5z m1585 -57 c807 -99 1508 -351 2149
-773 590 -388 1075 -886 1413 -1452 69 -115 278 -525 278 -546 0 -5 -29 42
-64 106 -205 373 -433 675 -746 990 -389 391 -782 672 -1285 919 -595 292
-1226 461 -1903 511 -210 15 -696 7 -887 -16 -785 -92 -1459 -326 -2088 -727
-299 -189 -528 -374 -837 -673 -183 -177 -206 -196 -162 -135 18 25 81 104
141 175 564 678 1303 1176 2144 1444 312 99 583 152 1002 195 105 10 716 -3
845 -18z m617 -12 c-3 -3 -12 -4 -19 -1 -8 3 -5 6 6 6 11 1 17 -2 13 -5z m715
-105 c1010 -362 1880 -1042 2461 -1924 427 -648 685 -1370 774 -2167 21 -189
24 -695 5 -868 -125 -1147 -596 -2163 -1374 -2965 -388 -401 -877 -753 -1383
-996 -144 -69 -403 -179 -421 -179 -4 0 75 42 177 93 1167 588 2033 1583 2455
2822 181 530 256 962 270 1550 11 438 -16 702 -117 1160 -121 546 -368 1125
-681 1593 -310 464 -803 984 -1243 1314 -274 205 -603 400 -900 535 -71 32
-141 64 -155 70 -56 26 -2 10 132 -38z m-1502 -164 c480 -15 1069 -141 1545
-330 152 -60 466 -212 610 -295 362 -208 653 -430 958 -730 531 -521 898
-1107 1116 -1782 44 -135 98 -384 106 -489 4 -52 -1 -37 -29 81 -146 624 -384
1119 -786 1630 -136 172 -367 424 -518 562 -200 183 -529 422 -776 563 -366
209 -780 378 -1156 471 -441 109 -597 129 -930 121 -124 -3 -290 -13 -370 -22
-87 -9 -258 -17 -425 -19 -339 -4 -423 -15 -745 -97 -350 -90 -454 -122 -675
-211 -742 -298 -1329 -703 -1806 -1246 -574 -654 -901 -1381 -1005 -2232 -25
-199 -25 -636 -1 -840 64 -534 195 -981 422 -1445 193 -392 419 -723 730
-1066 201 -222 612 -565 901 -752 255 -165 722 -379 1016 -466 73 -22 126 -40
117 -40 -37 -2 -316 85 -469 146 -777 307 -1422 792 -1880 1413 -133 180 -317
477 -463 745 -178 329 -322 853 -384 1400 -22 191 -25 796 -5 985 39 372 83
585 170 831 212 597 374 921 689 1377 143 207 203 280 344 418 512 498 1196
885 1979 1120 276 83 582 145 885 179 152 17 510 34 620 28 33 -1 130 -5 215
-8z m850 -2175 c104 -25 281 -111 371 -179 99 -75 248 -236 322 -348 167 -250
282 -589 328 -958 19 -157 14 -428 -10 -565 -91 -520 -260 -861 -585 -1185
-169 -168 -326 -271 -516 -339 -286 -103 -607 -91 -892 35 -152 66 -174 73
-207 59 -50 -20 -66 -75 -65 -220 1 -214 44 -302 208 -429 111 -86 162 -138
172 -177 4 -14 5 -64 2 -112 -3 -72 -9 -96 -32 -138 -54 -100 -158 -175 -311
-223 -153 -49 -217 -56 -500 -56 -313 0 -477 21 -721 90 -274 79 -562 227
-664 343 -105 119 -136 277 -78 399 20 43 68 83 162 138 144 82 203 189 225
410 48 465 48 1776 1 2117 -17 119 -21 123 -173 158 -104 24 -134 38 -183 87
-97 96 -119 264 -53 401 30 61 119 154 199 207 38 25 156 88 262 139 527 256
938 372 1243 352 114 -7 163 -26 184 -71 8 -16 18 -74 22 -128 8 -107 23 -143
63 -153 31 -7 65 11 201 107 183 129 398 218 615 254 113 19 298 12 410 -15z
m3104 -561 c372 -743 477 -1503 319 -2309 -31 -157 -41 -158 -18 -3 8 59 23
205 31 323 53 718 -79 1407 -402 2099 -79 171 -37 104 70 -110z m404 -1039 l0
-35 -9 40 c-4 22 -8 49 -7 60 0 16 2 15 8 -5 4 -14 8 -41 8 -60z m9 -87 c-3
-10 -5 -2 -5 17 0 19 2 27 5 18 2 -10 2 -26 0 -35z m-130 -1345 c-3 -8 -6 -5
-6 6 -1 11 2 17 5 13 3 -3 4 -12 1 -19z m20 -350 c-3 -8 -6 -5 -6 6 -1 11 2
17 5 13 3 -3 4 -12 1 -19z m-37 -137 c-91 -325 -346 -837 -590 -1181 -440
-620 -1004 -1108 -1668 -1444 -165 -83 -381 -180 -388 -173 -2 1 45 25 104 51
363 163 793 438 1102 706 287 248 598 572 773 802 275 365 514 819 653 1240
21 65 40 116 41 114 2 -2 -10 -54 -27 -115z m-381 -972 c-6 -12 -42 -74 -81
-138 -576 -955 -1489 -1685 -2554 -2040 -356 -119 -726 -194 -1134 -232 -185
-17 -613 -14 -815 6 -939 91 -1805 453 -2520 1054 -105 88 -370 345 -458 446
-58 64 -52 60 90 -62 408 -351 833 -619 1323 -836 151 -66 567 -223 705 -265
479 -147 1119 -200 1701 -142 1502 150 2873 933 3651 2088 91 133 119 171 92
121z m-1139 -1453 c0 -7 -192 -161 -310 -248 -252 -187 -492 -332 -785 -474
-228 -110 -368 -166 -620 -249 -341 -113 -775 -165 -1255 -151 -858 23 -1642
253 -2355 688 -171 105 -485 327 -485 343 0 2 62 -38 138 -89 730 -494 1564
-778 2457 -836 897 -58 1821 158 2615 612 133 76 388 246 505 337 93 72 95 74
95 67z m-5829 -73 c13 -16 12 -17 -3 -4 -10 7 -18 15 -18 17 0 8 8 3 21 -13z
m4679 -313 c-8 -5 -19 -10 -25 -10 -5 0 -3 5 5 10 8 5 20 10 25 10 6 0 3 -5
-5 -10z m-3203 -136 c-3 -3 -12 -4 -19 -1 -8 3 -5 6 6 6 11 1 17 -2 13 -5z
m290 -60 c-3 -3 -12 -4 -19 -1 -8 3 -5 6 6 6 11 1 17 -2 13 -5z m56 -11 c-7
-2 -19 -2 -25 0 -7 3 -2 5 12 5 14 0 19 -2 13 -5z m352 -38 c132 -13 301 -26
375 -29 74 -4 200 -13 280 -21 80 -8 170 -17 200 -19 30 -2 -75 -2 -235 -1
-176 2 -347 10 -435 19 -157 18 -512 74 -520 83 -3 3 18 3 45 -1 28 -4 158
-17 290 -31z"/>
<path d="M5205 6302 c-81 -38 -135 -137 -150 -272 -8 -77 -55 -1037 -55 -1127
0 -85 17 -133 63 -181 57 -60 145 -92 253 -92 317 -1 468 299 451 894 -8 294
-46 456 -142 607 -77 119 -176 180 -305 186 -58 3 -84 0 -115 -15z"/>
</g>
</svg>
